<svg width="150" height="23" viewBox="0 0 150 23" fill="none" xmlns="http://www.w3.org/2000/svg">
<path d="M77.1339 0.515729C77.2913 0.515736 77.4189 0.642863 77.4189 0.799698V9.19658C77.5572 8.7915 77.7302 8.40758 77.9382 8.04491C78.5765 6.96194 79.4564 6.11957 80.5778 5.51793C81.7164 4.8991 83.0448 4.58972 84.5629 4.58971C86.0811 4.58971 87.401 4.8991 88.5223 5.51793C89.661 6.11957 90.5408 6.96194 91.1619 8.04491C91.3971 8.44394 91.5888 8.8687 91.7373 9.31908C91.8464 8.85802 91.9882 8.42467 92.1627 8.01908C92.6285 6.91893 93.284 6.07664 94.1295 5.49219C94.9747 4.89055 95.9578 4.58971 97.0797 4.58971C98.1144 4.58971 98.9775 4.79603 99.667 5.20858C100.005 5.41019 100.303 5.64872 100.562 5.92422C100.767 6.14295 101.246 6.007 101.246 5.70733V0.799698C101.246 0.642857 101.373 0.515729 101.531 0.515729H105.981C106.139 0.515746 106.266 0.642869 106.266 0.799698V8.95771C106.373 8.58515 106.506 8.22928 106.664 7.89019C107.147 6.85882 107.82 6.0509 108.683 5.46645C109.545 4.88199 110.538 4.58971 111.659 4.58971C112.711 4.58971 113.565 4.81323 114.22 5.26016C114.558 5.49047 114.859 5.75732 115.124 6.06068C115.32 6.28465 115.773 6.156 115.773 5.85922V5.18311C115.773 5.02628 115.901 4.89915 116.058 4.89915H120.457C120.614 4.89916 120.742 5.02629 120.742 5.18311V10.9614C120.845 9.87156 121.142 8.89938 121.632 8.04491C122.253 6.96194 123.124 6.11957 124.246 5.51793C125.367 4.89911 126.678 4.58971 128.179 4.58971C129.68 4.58971 130.974 4.90774 132.061 5.54376C133.165 6.1626 134.01 7.04791 134.597 8.19963C135.041 9.07243 135.317 10.0636 135.425 11.1734V5.18311C135.425 5.02628 135.553 4.89915 135.71 4.89915H140.015C140.169 4.89915 140.295 5.02024 140.3 5.17307L140.394 7.82921C140.635 6.99303 140.946 6.35156 141.326 5.90478C141.895 5.23437 142.697 4.89915 143.732 4.89915H144.637C144.795 4.89917 144.922 5.02629 144.922 5.18311V8.58601C144.922 8.74284 144.795 8.86997 144.637 8.86998H143.68C142.938 8.86998 142.326 8.9473 141.842 9.10202C141.377 9.23953 141.023 9.4888 140.781 9.84979C140.557 10.2108 140.446 10.7179 140.446 11.3711V18.539C140.446 18.6958 140.318 18.8229 140.16 18.8229H135.71C135.553 18.8229 135.425 18.6958 135.425 18.539V13.0292C135.373 13.1023 135.288 13.1502 135.191 13.1502H126.173C126.011 13.1502 125.88 13.2848 125.897 13.4454C125.969 14.1406 126.195 14.6697 126.575 15.0325C127.023 15.4279 127.593 15.6257 128.282 15.6257C128.783 15.6257 129.205 15.5311 129.551 15.342C129.859 15.1809 130.093 14.9141 130.25 14.5413C130.301 14.4227 130.417 14.341 130.546 14.3478L134.949 14.5762C135.129 14.5855 135.255 14.7563 135.202 14.9273C134.788 16.2592 133.992 17.2828 132.811 17.9979C131.535 18.7542 129.991 19.1323 128.179 19.1323C126.678 19.1323 125.367 18.8315 124.246 18.2298C123.125 17.6282 122.253 16.7859 121.632 15.703C121.142 14.8349 120.845 13.8545 120.742 12.7617V17.1727C120.742 18.5134 120.423 19.6137 119.784 20.4731C119.163 21.3327 118.301 21.9687 117.197 22.3812C116.11 22.7938 114.868 23 113.47 23C111.917 23 110.659 22.8367 109.692 22.5101C108.743 22.1835 108.01 21.7281 107.492 21.1436C107.054 20.6641 106.722 20.1231 106.494 19.5207C106.43 19.3502 106.553 19.1717 106.735 19.1588L111.28 18.8387C111.411 18.8295 111.528 18.9128 111.586 19.031C111.696 19.2575 111.858 19.4373 112.073 19.5707C112.366 19.7598 112.832 19.8544 113.47 19.8544C114.177 19.8544 114.721 19.6567 115.1 19.2613C115.48 18.8659 115.67 18.204 115.67 17.2758C115.67 17.0059 115.242 16.8701 115.042 17.0518C114.776 17.2928 114.46 17.505 114.091 17.6884C113.367 18.0494 112.556 18.2298 111.659 18.2298C110.538 18.2298 109.545 17.9549 108.683 17.4048C107.82 16.8547 107.147 16.0726 106.664 15.0584C106.506 14.7248 106.373 14.3708 106.266 13.9964V18.539C106.266 18.6958 106.139 18.8229 105.981 18.8229H101.649C101.496 18.8229 101.371 18.7023 101.365 18.5499L101.34 17.8975C101.328 17.6052 100.878 17.4876 100.681 17.704C100.382 18.0325 100.026 18.3109 99.6154 18.5393C98.8912 18.9347 98.046 19.1323 97.0797 19.1323C95.924 19.1323 94.9231 18.8401 94.0779 18.2557C93.2496 17.6541 92.6026 16.8117 92.1369 15.7287C91.971 15.3221 91.8359 14.8895 91.7313 14.4312C91.5837 14.8789 91.394 15.3029 91.1619 15.703C90.5408 16.7859 89.661 17.6282 88.5223 18.2298C87.4009 18.8315 86.0811 19.1323 84.5629 19.1323C83.0448 19.1323 81.7164 18.8315 80.5778 18.2298C79.4564 17.6282 78.5765 16.7859 77.9382 15.703C77.7302 15.3345 77.5572 14.9458 77.4189 14.5367V18.539C77.4189 18.6958 77.2913 18.8229 77.1339 18.8229H72.8022C72.6491 18.8229 72.5233 18.7023 72.5174 18.5499L72.4922 17.8975C72.4809 17.6052 72.0311 17.4876 71.8337 17.704C71.5341 18.0324 71.1788 18.3109 70.7682 18.5393C70.0436 18.9347 69.1982 19.1323 68.2321 19.1323C67.0763 19.1323 66.0756 18.8401 65.2302 18.2557C64.4022 17.6541 63.7553 16.8117 63.2894 15.7287C62.8409 14.6285 62.6165 13.3393 62.6165 11.861C62.6165 10.3827 62.8494 9.10203 63.3152 8.01908C63.781 6.91893 64.4367 6.07664 65.282 5.49219C66.1274 4.89054 67.1107 4.58971 68.2321 4.58971C69.2673 4.58971 70.1298 4.79603 70.8199 5.20858C71.1571 5.41019 71.4553 5.64872 71.7143 5.92422C71.9198 6.14295 72.3985 6.007 72.3986 5.70733V0.799698C72.3986 0.642858 72.5262 0.515729 72.6836 0.515729H77.1339ZM7.11617 1.6245C7.27357 1.62452 7.40117 1.75163 7.40117 1.90847V4.89915H10.765C10.9224 4.89917 11.05 5.02629 11.05 5.18311V7.99096C11.6856 6.93398 12.5545 6.10953 13.6572 5.51793C14.7959 4.8991 16.1243 4.58972 17.6424 4.58971C19.1606 4.58971 20.4804 4.8991 21.6018 5.51793C22.7404 6.11957 23.6203 6.96194 24.2414 8.04491C24.8797 9.12787 25.1989 10.3999 25.1989 11.861C25.1989 13.3222 24.8797 14.6028 24.2414 15.703C23.6203 16.7859 22.7404 17.6282 21.6018 18.2298C20.4804 18.8315 19.1606 19.1323 17.6424 19.1323C16.1243 19.1323 14.7959 18.8315 13.6572 18.2298C12.5545 17.6383 11.6856 16.8138 11.05 15.7567V18.539C11.05 18.6958 10.9224 18.8229 10.765 18.8229H6.9095C5.33957 18.8229 4.19231 18.4619 3.46771 17.74C2.74312 17.0008 2.38076 15.8319 2.38076 14.2332V8.43166H0.284999C0.12761 8.43165 2.34871e-05 8.30451 0 8.14769V5.18311C5.0881e-06 5.02628 0.127599 4.89916 0.284999 4.89915H2.38076V1.90847C2.38076 1.75162 2.50843 1.6245 2.66585 1.6245H7.11617ZM149.715 14.5915C149.872 14.5916 150 14.7187 150 14.8756V18.5676C150 18.7244 149.872 18.8515 149.715 18.8516H145.155C144.997 18.8515 144.87 18.7244 144.87 18.5676V14.8756C144.87 14.7188 144.997 14.5916 145.155 14.5915H149.715ZM42.8662 4.89906C43.0236 4.89906 43.1513 5.02627 43.1513 5.18311V18.539C43.1513 18.6958 43.0236 18.8229 42.8662 18.8229H38.4159C38.4 18.8229 38.3844 18.8215 38.3692 18.819C38.3539 18.8214 38.3382 18.8229 38.3219 18.8229H33.8503C33.7515 18.8229 33.6599 18.772 33.6079 18.6883L31.3706 15.0857C31.2596 14.9068 30.9984 14.9062 30.8865 15.0847L28.6253 18.6894C28.5733 18.7724 28.4819 18.8229 28.3836 18.8229H23.8059C23.5762 18.8229 23.4409 18.5659 23.5715 18.3774L28.0154 11.9713C28.0828 11.874 28.0827 11.7451 28.0151 11.6479L23.6249 5.34505C23.4937 5.15672 23.6289 4.89915 23.859 4.89915H28.3334C28.4309 4.89915 28.5216 4.94876 28.5739 5.03068L30.7829 8.48953C30.8956 8.66587 31.1543 8.6647 31.2653 8.48734L33.4265 5.03287C33.4786 4.94969 33.5701 4.89916 33.6684 4.89915H38.2447C38.275 4.89915 38.3038 4.90376 38.3306 4.91202C38.3575 4.90359 38.3862 4.89906 38.4159 4.89906H42.8662ZM52.7404 4.58971C53.7065 4.58972 54.5432 4.79603 55.2506 5.20858C55.9751 5.62114 56.5358 6.22273 56.9326 7.01345C57.3295 7.78699 57.5279 8.74108 57.5279 9.87558V18.539C57.5279 18.6958 57.4002 18.8229 57.2428 18.8229H52.7925C52.6351 18.8229 52.5075 18.6958 52.5074 18.539V11.6032C52.5074 10.9327 52.4644 10.3655 52.3781 9.90138C52.3091 9.42001 52.1538 9.05907 51.9123 8.81841C51.688 8.56057 51.3516 8.43166 50.903 8.43166C50.2647 8.43167 49.8075 8.70668 49.5315 9.25674C49.2554 9.80679 49.1174 10.5889 49.1174 11.6032V18.539C49.1174 18.6958 48.9899 18.8229 48.8325 18.8229H44.3821C44.2247 18.8229 44.097 18.6958 44.097 18.539V5.18311C44.097 5.02627 44.2247 4.89915 44.3821 4.89915H48.3278C48.48 4.89915 48.6054 5.01842 48.6125 5.16997L48.6982 7.00788C48.7778 6.82389 48.8658 6.65387 48.9622 6.49782C49.3934 5.81022 49.9282 5.32026 50.5666 5.02804C51.2222 4.73581 51.9468 4.58971 52.7404 4.58971ZM34.0889 11.6474C34.021 11.7449 34.0211 11.874 34.089 11.9714L38.131 17.7673V5.84435L34.0889 11.6474ZM17.6424 8.17379C16.8661 8.1738 16.2709 8.5004 15.8568 9.15359C15.4428 9.78959 15.2357 10.6921 15.2357 11.861C15.2357 13.0471 15.4428 13.9582 15.8568 14.5942C16.2709 15.2302 16.8661 15.5483 17.6424 15.5483C18.4188 15.5483 19.0141 15.2302 19.4281 14.5942C19.8421 13.9582 20.0492 13.0471 20.0492 11.861C20.0492 10.6921 19.8421 9.78959 19.4281 9.15359C19.0141 8.50038 18.4188 8.17379 17.6424 8.17379ZM70.0694 8.17379C69.3621 8.1738 68.8014 8.50902 68.3874 9.17942C67.9734 9.83268 67.7663 10.7265 67.7663 11.861C67.7663 12.9612 67.9734 13.8551 68.3874 14.5426C68.8187 15.213 69.3794 15.5483 70.0694 15.5483C70.5698 15.5483 70.9925 15.4194 71.3375 15.1615C71.6826 14.9036 71.9413 14.5082 72.1138 13.9755C72.3036 13.4254 72.3986 12.7205 72.3986 11.861C72.3986 11.0015 72.3036 10.3054 72.1138 9.77249C71.9413 9.2224 71.6826 8.81839 71.3375 8.56054C70.9925 8.30271 70.5698 8.17379 70.0694 8.17379ZM84.5629 8.17379C83.7867 8.1738 83.1915 8.5004 82.7774 9.15359C82.3633 9.78959 82.1563 10.6921 82.1563 11.861C82.1563 13.0471 82.3634 13.9582 82.7774 14.5942C83.1915 15.2302 83.7867 15.5483 84.5629 15.5483C85.3393 15.5483 85.9346 15.2302 86.3487 14.5942C86.7627 13.9582 86.9697 13.0471 86.9697 11.861C86.9697 10.6921 86.7627 9.78959 86.3487 9.15359C85.9346 8.50039 85.3393 8.17379 84.5629 8.17379ZM98.9165 8.17379C98.2092 8.17379 97.6492 8.50902 97.2345 9.17942C96.8208 9.83268 96.6135 10.7265 96.6135 11.861C96.6135 12.9612 96.8208 13.8551 97.2345 14.5426C97.666 15.213 98.227 15.5483 98.9165 15.5483C99.4174 15.5483 99.8396 15.4194 100.185 15.1615C100.53 14.9036 100.789 14.5082 100.962 13.9755C101.151 13.4254 101.246 12.7205 101.246 11.861C101.246 11.0015 101.151 10.3054 100.962 9.77249C100.789 9.2224 100.53 8.8184 100.185 8.56054C99.8396 8.3027 99.4174 8.17379 98.9165 8.17379ZM10.8153 8.4271C10.799 8.42999 10.7822 8.43166 10.765 8.43166H7.40117V13.5113C7.40117 14.1989 7.53921 14.6715 7.81524 14.9294C8.10853 15.17 8.54842 15.2904 9.13498 15.2904H10.765C10.7784 15.2904 10.7917 15.2913 10.8047 15.2931C10.3256 14.2883 10.086 13.1443 10.086 11.861C10.086 10.5684 10.3292 9.42375 10.8153 8.4271ZM113.445 7.94176C112.703 7.94176 112.125 8.25979 111.71 8.89582C111.296 9.5318 111.089 10.3655 111.089 11.3969C111.089 12.4454 111.305 13.2878 111.736 13.9239C112.168 14.5426 112.737 14.852 113.445 14.852C114.152 14.852 114.704 14.5512 115.1 13.9496C115.515 13.3479 115.721 12.497 115.721 11.3969C115.721 10.6749 115.627 10.0561 115.437 9.5404C115.265 9.02475 115.006 8.62938 114.66 8.35435C114.333 8.07931 113.928 7.94176 113.445 7.94176ZM128.179 7.99334C127.541 7.99334 127.006 8.21676 126.575 8.6637C126.218 9.04934 125.995 9.55021 125.907 10.1663C125.885 10.3291 126.016 10.4687 126.181 10.4687H130.165C130.325 10.4687 130.455 10.3376 130.441 10.179C130.383 9.51339 130.173 8.99967 129.81 8.63795C129.395 8.20821 128.852 7.99334 128.179 7.99334ZM42.9439 0C43.1013 1.07671e-05 43.2289 0.127135 43.2289 0.283971V3.33736C43.2289 3.4417 43.1715 3.53761 43.0794 3.58719L40.6411 4.89906L38.2029 3.58719C38.1108 3.53761 38.0534 3.4417 38.0533 3.33736V0.283971C38.0534 0.127129 38.181 0 38.3384 0H42.9439Z" fill="white"/>
</svg>
